<svg t="1575948666627" class="icon" viewBox="0 0 1024 1024" version="1.1" xmlns="http://www.w3.org/2000/svg" p-id="2173" width="200" height="200"><path d="M512 95.026c229.844 0 416.974 187.13 416.974 416.974S741.844 928.974 512 928.974 95.026 741.844 95.026 512 282.156 95.026 512 95.026m0-91.53C231.305 3.495 3.495 231.305 3.495 512S231.305 1020.505 512 1020.505 1020.505 792.695 1020.505 512 792.695 3.495 512 3.495z" fill="#1890FF" p-id="2174"></path><path d="M794.729 557.765H229.27c-19.831 0-35.595-20.34-35.595-45.765s15.764-45.765 35.595-45.765h564.95c19.83 0 35.594 20.34 35.594 45.765 0.509 25.425-15.763 45.765-35.086 45.765z" fill="#1890FF" p-id="2175"></path><path d="M466.235 794.729V229.27c0-19.831 20.34-35.595 45.765-35.595s45.765 15.764 45.765 35.595v564.95c0 19.83-20.34 35.594-45.765 35.594-25.425 0.509-45.765-15.763-45.765-35.086z" fill="#1890FF" p-id="2176"></path></svg>