<svg t="1576056597117" class="icon" viewBox="0 0 1039 1024" version="1.1" xmlns="http://www.w3.org/2000/svg" p-id="2797" width="200" height="200"><path d="M521.035294 695.717647c-99.388235 0-179.701961-80.313725-179.701961-179.701961 0-99.388235 80.313725-179.701961 179.701961-179.701961 99.388235 0 179.701961 80.313725 179.701961 179.701961s-80.313725 179.701961-179.701961 179.701961z m0-301.176471c-66.258824 0-120.470588 54.211765-120.470588 120.470589s54.211765 120.470588 120.470588 120.470588 120.470588-54.211765 120.470588-120.470588-54.211765-120.470588-120.470588-120.470589z" fill="#8a8a8a" p-id="2798"></path><path d="M588.298039 138.541176v39.152942c0 29.113725 17.066667 55.215686 44.172549 66.258823 9.035294 4.015686 18.070588 5.019608 27.105883 5.019608 19.07451 0 37.145098-7.027451 50.196078-21.082353l25.098039-25.098039 96.376471 96.37647-25.098039 25.09804c-20.078431 20.078431-27.105882 51.2-15.058824 78.305882 11.043137 27.105882 37.145098 44.172549 66.258824 44.172549h38.149019V582.27451h-38.149019c-29.113725 0-55.215686 17.066667-66.258824 44.172549-11.043137 27.105882-5.019608 57.223529 15.058824 78.305882l25.098039 25.098039-96.376471 96.376471-25.098039-25.098039c-13.05098-13.05098-31.121569-21.082353-50.196078-21.082353-9.035294 0-19.07451 2.007843-27.105883 5.019608-27.105882 11.043137-44.172549 37.145098-44.172549 66.258823v38.14902H452.768627v-38.14902c0-29.113725-17.066667-55.215686-44.172549-66.258823-9.035294-4.015686-18.070588-5.019608-27.105882-5.019608-19.07451 0-37.145098 7.027451-50.196078 21.082353l-25.09804 25.098039-96.37647-96.376471 25.098039-25.098039c20.078431-20.078431 27.105882-51.2 15.058824-78.305882-11.043137-27.105882-37.145098-44.172549-66.258824-44.172549h-38.14902V447.74902h38.14902c29.113725 0 55.215686-17.066667 66.258824-44.172549 11.043137-27.105882 5.019608-57.223529-15.058824-78.305883l-25.098039-25.098039 96.37647-96.376471 25.09804 25.09804c13.05098 13.05098 31.121569 21.082353 50.196078 21.082353 9.035294 0 19.07451-2.007843 27.105882-5.019608 27.105882-11.043137 44.172549-37.145098 44.172549-66.258824v-39.152941h135.529412v-1.003922z m0-59.231372H452.768627c-32.12549 0-59.231373 30.117647-59.231372 63.247059v36.141176c0 5.019608-3.011765 9.035294-8.031373 11.043137-1.003922 0-3.011765 1.003922-4.015686 1.003922-3.011765 0-6.023529-1.003922-9.035294-4.015686l-25.098039-25.098039c-11.043137-12.047059-27.105882-17.066667-42.164706-17.066667s-30.117647 6.023529-42.164706 17.066667l-96.376471 96.37647c-23.090196 23.090196-23.090196 61.239216 0 84.329412l25.09804 25.098039c4.015686 4.015686 5.019608 9.035294 3.011764 13.050981-2.007843 5.019608-6.023529 8.031373-11.043137 8.031372h-36.141176c-32.12549 0-61.239216 27.105882-61.239216 59.231373v135.529411c0 33.129412 29.113725 59.231373 61.239216 59.231373h36.141176c5.019608 0 9.035294 3.011765 11.043137 8.031372 2.007843 5.019608 1.003922 10.039216-3.011764 13.050981l-25.09804 25.098039c-23.090196 23.090196-23.090196 61.239216 0 84.329412l96.376471 96.37647c11.043137 11.043137 27.105882 17.066667 42.164706 17.066667s30.117647-6.023529 42.164706-17.066667l25.098039-25.098039c2.007843-2.007843 5.019608-4.015686 9.035294-4.015686 2.007843 0 3.011765 0 5.019608 1.003922 5.019608 2.007843 8.031373 6.023529 8.031372 11.043137v36.141176c0 33.129412 27.105882 62.243137 59.231373 62.243137h135.529412c32.12549 0 59.231373-29.113725 59.231372-62.243137v-36.141176c0-5.019608 3.011765-9.035294 8.031373-11.043137 2.007843-1.003922 3.011765-1.003922 5.019608-1.003922 3.011765 0 6.023529 1.003922 9.035294 4.015686l25.098039 25.098039c11.043137 11.043137 27.105882 17.066667 42.164706 17.066667s30.117647-6.023529 42.164706-17.066667l96.37647-96.37647c23.090196-23.090196 23.090196-61.239216 0-84.329412l-25.098039-25.098039c-4.015686-4.015686-5.019608-9.035294-3.011765-13.050981 2.007843-5.019608 6.023529-8.031373 11.043138-8.031372H893.490196c32.12549 0 61.239216-27.105882 61.239216-59.231373V447.74902c0-33.129412-29.113725-59.231373-61.239216-59.231373h-36.141176c-5.019608 0-9.035294-3.011765-11.043138-8.031372-2.007843-5.019608-1.003922-10.039216 3.011765-13.050981l25.098039-25.098039c23.090196-23.090196 23.090196-61.239216 0-84.329412l-96.37647-96.37647c-11.043137-12.047059-27.105882-17.066667-42.164706-17.066667s-30.117647 6.023529-42.164706 17.066667l-25.098039 25.098039c-2.007843 2.007843-5.019608 4.015686-9.035294 4.015686-2.007843 0-3.011765 0-5.019608-1.003922-5.019608-2.007843-8.031373-6.023529-8.031373-11.043137v-36.141176c1.003922-33.129412-25.098039-63.247059-58.227451-63.247059" fill="#8a8a8a" p-id="2799"></path></svg>