<svg t="1576581958434" class="icon" viewBox="0 0 1024 1024" version="1.1" xmlns="http://www.w3.org/2000/svg" p-id="1896" width="200" height="200"><path d="M512 32C390.4 32 265.6 80 172.8 172.8c-188.8 188.8-188.8 492.8 0 678.4C265.6 944 390.4 992 512 992s246.4-48 339.2-140.8c188.8-188.8 188.8-492.8 0-678.4C758.4 80 633.6 32 512 32z m0 48c57.6 0 112 9.6 163.2 32 54.4 22.4 102.4 54.4 144 96 41.6 41.6 73.6 89.6 96 144 19.2 51.2 32 105.6 32 163.2s-9.6 112-32 163.2c-22.4 54.4-54.4 102.4-96 144-41.6 41.6-89.6 73.6-144 96-51.2 19.2-105.6 32-163.2 32s-112-9.6-163.2-32c-54.4-22.4-102.4-54.4-144-96-41.6-41.6-73.6-89.6-96-144-19.2-51.2-32-105.6-32-163.2s9.6-112 32-163.2c22.4-54.4 54.4-102.4 96-144 41.6-41.6 89.6-73.6 144-96 51.2-22.4 105.6-32 163.2-32z" fill="#cdcdcd" opacity=".6" p-id="1897"></path><path d="M512 691.2c-19.2 0-38.4 16-38.4 38.4 0 19.2 16 38.4 38.4 38.4 19.2 0 38.4-16 38.4-38.4 0-19.2-19.2-38.4-38.4-38.4zM512 256c-44.8 0-83.2 12.8-108.8 38.4-16 12.8-28.8 38.4-41.6 76.8-3.2 12.8 3.2 28.8 16 35.2H387.2c16 3.2 28.8-6.4 35.2-22.4 9.6-25.6 16-44.8 25.6-54.4 16-16 38.4-25.6 64-25.6s51.2 9.6 67.2 28.8c19.2 19.2 25.6 38.4 25.6 64 0 12.8-3.2 25.6-9.6 38.4-6.4 12.8-19.2 25.6-41.6 44.8-22.4 19.2-35.2 32-44.8 44.8-9.6 12.8-19.2 25.6-22.4 41.6-6.4 19.2-9.6 38.4-9.6 64 0 9.6 9.6 19.2 19.2 19.2h16c16 0 28.8-12.8 32-28.8 0-12.8 3.2-22.4 3.2-25.6 3.2-12.8 6.4-22.4 12.8-28.8 6.4-9.6 19.2-22.4 38.4-38.4 28.8-25.6 48-51.2 60.8-67.2 9.6-19.2 16-38.4 16-60.8 0-38.4-16-70.4-44.8-99.2-32-32-70.4-44.8-118.4-44.8z" fill="#cdcdcd" opacity=".6" p-id="1898"></path></svg>